# xmcd CD database file
#
# Track frame offsets:
#	151
#	14493
#	32881
#	47834
#	62411
#	73097
#	88238
#	110636
#	123315
#	139523
#	150903
#	161300
#
# Disc length: 2339 seconds
#
# Revision: 2
# Processed by: cddbd v1.5.2PL0 Copyright (c) Steve Scherf et al.
# Submitted via: CDex 1.51
#
DISCID=9a09210c
DTITLE=Mickey Raphael - Red River Valley
DYEAR=1999
DGENRE=Country
TTITLE0=Red River Valley
TTITLE1=Streets Of Laredo
TTITLE2=Long, Long Ago
TTITLE3=Shenendoah
TTITLE4=You Are My Sunshine
TTITLE5=Home On The Range
TTITLE6=Down In The Valley
TTITLE7=Aura Lee
TTITLE8=Swanee River
TTITLE9=Sweet Besty From Pike
TTITLE10=Oh Susannah
TTITLE11=Amazing Grace
EXTD=YEAR: 1999
EXTT0=
EXTT1=
EXTT2=
EXTT3=
EXTT4=
EXTT5=
EXTT6=
EXTT7=
EXTT8=
EXTT9=
EXTT10=
EXTT11=
PLAYORDER=
